<?xml version="1.0" encoding="UTF-8"?>
<!DOCTYPE svg PUBLIC "-//W3C//DTD SVG 1.1//EN" "http://www.w3.org/Graphics/SVG/1.1/DTD/svg11.dtd">
<!-- Creator: CorelDRAW 2020 (64-Bit) -->
<svg xmlns="http://www.w3.org/2000/svg" xml:space="preserve" width="5.82677in" height="8.26772in" version="1.1" style="shape-rendering:geometricPrecision; text-rendering:geometricPrecision; image-rendering:optimizeQuality; fill-rule:evenodd; clip-rule:evenodd"
viewBox="0 0 5826.77 8267.72"
 xmlns:xlink="http://www.w3.org/1999/xlink"
 xmlns:xodm="http://www.corel.com/coreldraw/odm/2003">
 <defs>
  <style type="text/css">
   <![CDATA[
    .str0 {stroke:black;stroke-width:6.94;stroke-linecap:round;stroke-linejoin:round;stroke-miterlimit:2.61313}
    .str1 {stroke:white;stroke-width:6.94;stroke-linecap:round;stroke-linejoin:round;stroke-miterlimit:2.61313}
    .fil0 {fill:#134072}
    .fil1 {fill:white}
    .fil2 {fill:white;fill-rule:nonzero}
   ]]>
  </style>
 </defs>
 <g id="Layer_x0020_1">
  <metadata id="CorelCorpID_0Corel-Layer"/>
  <rect class="fil0 str0" x="662.9" y="1482.58" width="9717.08" height="4931.29"/>
  <path class="fil1 str1" d="M1538.51 3174.72c0,138.52 -5.01,1352.68 2.94,1380.39 5.02,17.48 16.48,14.36 30.34,22.99l36.15 20.52c8.03,4.07 6.94,5.07 16.19,10.48 22.87,13.36 45.35,29.55 69.58,40.42l35.86 20.81c20.15,10.85 53.4,34.52 71.26,42.07l96.39 53.61c15.02,12.56 48.38,25.75 61.82,34.84 7.33,4.95 6.89,5.88 16.07,10.59 13.33,6.83 21.17,14.82 35.72,20.95 35.32,14.88 70.07,45.87 106.27,60.4l317.17 182.83c13.09,5.73 7,2.73 17.11,9.56l124.32 72.35c6.25,3.39 10.76,7.22 16.25,10.42 15.96,9.29 39.19,26.07 56.55,30.12 4.6,-6.87 10,-8.65 10,-16.67l0 -2090c0,-13.14 -2.36,-15.21 -2.36,-23.33 0,-20.86 5.81,-29.93 -7.64,-50l-197.7 112.3c-24.41,24.13 -8.35,86.37 -10.06,116.96 -7.21,129.62 -2.25,352.33 -2.25,484.07 -6.87,4.6 -8.65,10 -16.67,10l-190 0c-15.56,0 -23.33,-7.77 -23.33,-23.33l0 -280c0,-14.07 2.42,-18.53 2.67,-26.98l-2.67 -63.02c0,-38.21 15.46,-70.99 -13.89,-67.49 -17.41,2.07 -7.22,-0.87 -17.04,6.54 -12.09,9.11 -28.82,14.2 -40.13,23.22 -8.88,7.09 -21.26,9.41 -30.27,16.4 -6.85,5.31 -1.68,3.92 -13.03,10.31l-58.06 31.93c-15.78,11.4 -44.25,22 -44.25,45.76l0 856.67c0,47.19 13.62,33.43 37.42,52.58l57.89 32.11c12.31,5.53 39.33,26.59 56.07,33.93 33.24,14.57 25.22,24.72 65.28,24.72 3.69,-15.82 0,-379.57 0,-426.67 0,-16.12 9.47,-30 26.67,-30 247.41,0 203.33,-22.75 203.33,100l0 603.33c0,20.65 3.09,31.6 3.46,46.76 0.27,11.16 -2.02,15.41 -2.97,23.72 -2.88,25.12 0.81,51.78 2.84,76.19 -21.56,18.69 -23.78,5.17 -53.8,-9.53 -13.7,-6.71 -9.03,-7.44 -19.12,-14.21 -7.33,-4.93 -14.88,-5.95 -23.18,-10.15l-94.62 -55.38c-46.43,-25.48 -90.56,-54.61 -138.18,-78.49l-60.61 -36.06c-20.3,-14.24 -41.93,-22.83 -61.91,-38.09 -7.85,-6 2.06,-0.7 -11.04,-5.62 -19.24,-7.23 -36.73,-18.75 -53.57,-29.76 -9.63,-6.3 -10.68,-7.79 -21.13,-12.2 -14.56,-6.15 -9.45,-4.61 -20.97,-12.36l-85.22 -48.11c-15.11,-7.67 -26.22,-17.47 -39.98,-26.69l0 -880c0,-56.88 -6.59,-174.97 -3.16,-216.49l2.92 -53.75c1.23,-29.57 16.28,-27.53 65.16,-54.84l95.16 -54.84c12.82,-6.63 16.13,-11.51 31.05,-18.95l332.3 -194.37c7,-3.93 11.93,-3.74 19.36,-7.3l63.29 -36.72c19.89,-9.28 44.81,-29.72 62.43,-37.57 6.52,-2.9 10.13,-3.98 15.96,-7.38l79 -47.66c31.2,-19.34 65.54,-34.22 96.39,-53.61l32.07 -17.93c6.59,-4.24 6.21,-6.28 12.8,-10.54 7.75,-5.01 11.17,-4.39 18.61,-8.06 18.02,-8.88 79.06,-51.28 100.59,-51.42 7.78,-0.05 47.05,30.43 61.33,36.16 16.37,6.57 17.47,11.53 31.36,18.64 5.43,2.78 9.33,4.1 15.26,8.08l32.61 17.39c9.47,5.29 7.74,6.58 15.71,10.95 7.01,3.84 9.63,3.02 16.22,7.11l142.59 84.07c19.94,15.56 52.73,28.58 77.09,46.24 7.96,5.77 8.88,4.5 18.23,8.44l223.74 129.6c11.41,6.81 21.68,11.89 32.07,17.93l95.44 54.56c6.72,3.28 9.37,4.75 14.86,8.47l111.39 65.27c6.5,2.91 10.15,3.98 15.95,7.38l63.17 36.83c10.75,5.32 7.22,6.06 15.35,11.31 13.35,8.62 27.02,4.42 27.02,26.32l0 1143.33c0,30.22 -66.59,51.86 -88.93,67.74l-47.93 28.73c-7.59,4.19 -10.1,3.2 -18.37,8.3 -8.03,4.95 -5.54,5.7 -15.82,10.85 -7.96,3.99 -12.28,3.91 -18.74,7.93l-233.15 136.85c-13.52,5.62 -18.5,12.81 -33.82,19.5 -13.48,5.89 -19.45,13.91 -33.2,20.13l-117.22 66.11c-7.55,5.31 -6.87,5.84 -16.1,10.57l-33.37 19.96c-6.28,2.84 -10.7,3.28 -16.45,6.88 -12.78,8.02 -0.19,3.91 -15,11.67l-34.12 19.21c-33.68,17.82 -150.63,83.23 -167.01,96.37 -16.94,13.59 -11.69,13.37 -9.88,33.71 3.49,39.21 -0.32,158.64 -4.22,205.48 6.63,4.44 9.24,6.07 16.67,10 6.24,-3.3 11.26,-6.07 16.68,-9.99 19.63,-14.2 63.05,-34.01 70.55,-39.45 18.04,-13.09 18.8,-11.17 35.93,-20.73 8.35,-4.66 7.21,-6.75 17.88,-12.12 7.91,-3.98 12.15,-4.06 18.83,-7.83 7.99,-4.52 8.79,-8.01 16.88,-13.12l108.84 -61.16c28.34,-13.82 77.07,-49.31 105.41,-61.26l36.63 -20.04c13.52,-6.67 13.49,-10.82 35.72,-20.94l264.93 -155.07c9.94,-4.73 11.56,-3.29 20.77,-9.23l36.17 -20.5c8.14,-5.43 5.98,-5.51 15.85,-10.82l35.61 -21.06c9.83,-5.32 9.37,-6.11 18.07,-11.92 13.62,-9.08 23.46,-8.6 37.66,-19.01l88.45 -51.56c8.26,-4.06 11.07,-6.87 18.44,-11.56l54.12 -29.21c9.82,-5.08 9.9,-6.97 18,-12 30.71,-19.08 35.26,5.63 35.26,-78.08l0 -1300c0,-8.16 -1.87,-12.87 -1.97,-17.08 -0.65,-27.46 10.17,-46.97 -24.69,-62.93l-290.52 -166.15c-7.4,-4 -10.54,-7.26 -18.41,-11.6l-155.54 -87.8c-14.47,-9.1 -2.72,-6.04 -16.9,-13.11 -9.32,-4.65 -14.74,-3.38 -23.94,-9.39 -9.2,-6 -5.8,-7.38 -17.06,-12.94l-97.3 -56.04c-6.65,-4.02 -13.4,-5.6 -20.25,-9.75 -7.99,-4.85 -7.61,-6.72 -17.78,-12.22l-38.94 -21.06c-15.73,-8.12 -24.37,-15.19 -40.1,-23.24l-229.38 -133.96c-7.27,-3.97 -13.41,-5.22 -20.48,-9.52 -18.87,-11.5 -37.59,-26.13 -58.69,-34.65 -10.96,-4.42 -10.76,-4.97 -19.02,-10.98 -8.02,-5.83 -10.92,-6.7 -19.11,-10.89l-116.62 -70.05c-49.72,11.58 -63.5,32.09 -102.93,50.4l-38.02 21.98c-12.99,5.81 -10.78,6.81 -20.48,12.85 -8.47,5.27 -11.87,4.62 -20.86,9.14 -10.54,5.29 -9.51,7.17 -17.8,12.2 -6.11,3.71 -13.99,5.66 -20.26,9.74 -9.01,5.85 -7.21,8.13 -19.6,13.73l-99.31 57.36c-8.65,5.24 -12.74,5.14 -20.54,9.46l-315.87 184.12c-13.06,9.25 -26.65,12.42 -40.48,22.85 -7.96,6 -11.36,5.68 -19.93,10.07l-137.31 79.35c-9.89,5.11 -9.44,6.25 -18.04,11.96l-119.58 67.09c-14.44,6.38 -8.6,6.41 -19.69,13.65 -7.83,5.11 -11.7,4.8 -20.42,9.58 -8.7,4.78 -11.35,9.03 -19.5,13.83 -7.93,4.67 -11.89,4.98 -20.07,9.93l-100.28 56.39c-11.24,5.58 -7.86,6.98 -17.09,12.91 -9.25,5.93 -13.48,4.34 -22.67,10.67 -13.93,9.58 -15.93,25.13 -15.93,47.4z"/>
  <path class="fil1 str1" d="M3558.51 4231.39l-2.54 -37.69c-2.03,-18.49 2.54,-11.38 2.54,-25.65 0,-16.04 -2.82,-14.44 -3.17,-26.86 -0.41,-14.3 3.17,-12.94 3.17,-29.81 0,-13.54 -3.25,-17.09 -2.19,-29.32 2.99,-34.57 -10.89,-27.11 -33.93,-10.14 -8.97,6.61 -17.5,6.97 -27.13,12.87l-51.43 31.9c-27.77,12.46 -52.59,30.4 -79.63,43.71l-239.03 137.64c-24.47,0 -14.98,-52.54 -15.02,-70l-1.65 -226.67c0,-21.89 4.65,-30.37 13.33,-43.33l206.67 0c3.78,-14.15 6.67,-5.83 6.67,-16.67l-2.67 -76.98c-0.67,-22.51 7.41,-80.9 0.17,-110.52 -3.72,-15.23 -2.16,-12.71 -20.45,-12.88l-193.71 0.38c-9,-13.44 -10.29,-13.39 -10.14,-36.53 0.33,-52.69 3.43,-179.73 0.65,-227.28 -7.64,-130.23 20.84,-72.52 143.94,-7.31 5.41,2.87 8.34,3.72 13.36,6.64 9.41,5.47 6.19,5.04 13.22,10.11l53.97 29.37c11.56,5.79 13.43,10.1 23.89,16.11l120.08 66.58c7.02,5.06 3.84,4.65 13.22,10.12l27.81 15.53c17.61,13.04 42.88,25.49 38.22,-11.27l1.79 -198.73c0,-10.93 -3.31,-14.44 -8.78,-21.22 -14.07,-17.48 -53.91,-31.74 -74.06,-45.94 -7.03,-4.95 -11.16,-6.28 -19.4,-10.6l-76.72 -43.28c-10.16,-5.55 -10.07,-7.78 -17.91,-12.09l-153.02 -86.98c-7.34,-4.52 -8.91,-7.58 -17.43,-12.57 -18.46,-10.82 -39.21,-19.56 -57.44,-32.56l-19.5 -10.5c-35.51,-14.86 -95.41,-56.24 -133.48,-76.52l-56.54 -33.5c-50.94,-37.85 -32.39,54.5 -32.39,125.78l-0.27 1496.94c-0.25,54.93 48.54,1.42 83.19,-14.02 10.79,-4.81 11.31,-4.65 21.37,-11.97l210.03 -119.97c8.3,-5.85 8.9,-7.1 18.6,-11.4 26.73,-11.84 51.09,-30.41 76.52,-43.48 9.63,-4.95 8.48,-7.56 17.37,-12.63 7.18,-4.1 12.56,-4.29 21.01,-8.99 10.24,-5.7 7.44,-6.61 17.73,-12.28l37.92 -22.08c7.8,-4.43 11.06,-5.41 18.93,-11.07l75.29 -44.71c7.45,-4.03 13.56,-5.48 20.6,-9.4 6.89,-3.84 10.3,-8.11 17.83,-12.17 16.95,-9.14 27.63,-6.23 29.91,-30.13 1.55,-16.33 -3.06,-8.39 -2.18,-25.45 0.48,-9.42 2.84,-15.3 2.84,-30.52z"/>
  <path class="fil2 str1" d="M5582.89 4303.03l-333.84 0c7.65,-172.77 11.68,-322.31 11.68,-449.15l-594.39 0c0,113.76 3.63,263.56 11.68,449.15l-333.83 0c10.07,-172.24 15.3,-349.81 15.3,-532.73 0,-185.06 -5.23,-347.15 -15.3,-486l333.83 0c-9.26,146.6 -14.09,282.26 -14.09,406.96l599.22 0c0,-110.02 -4.83,-245.67 -14.09,-406.96l333.84 0c-10.88,132.72 -16.51,294.54 -16.51,486 0,199.74 5.63,377.32 16.51,532.73zm1353.48 -172.24l-9.67 172.24 -1003.94 0c10.07,-157.55 15.3,-335.13 15.3,-532.73 0,-189.86 -5.23,-351.95 -15.3,-486l958.02 0 -12.89 171.44c-235.98,-8.28 -450.22,-12.55 -641.91,-12.55 7.65,72.63 11.68,158.09 11.68,256.62 164.31,0 340.29,-2.94 527.54,-8.55l0 163.43c-184.04,-5.07 -360.02,-7.74 -527.54,-7.74 0,105.74 3.22,205.08 9.67,297.21 215.44,0 444.99,-4.27 689.03,-13.35zm594.39 172.24l-333.84 0c10.07,-161.82 15.3,-339.4 15.3,-532.73 0,-190.4 -5.23,-352.48 -15.3,-486l333.84 0c-10.07,131.65 -15.3,293.47 -15.3,486 0,196.54 5.23,374.11 15.3,532.73zm1678.87 0l-377.33 0c0,-34.45 -35.84,-131.91 -107.52,-292.67l-544.85 0c-74.1,158.08 -111.15,255.55 -111.15,292.67l-355.19 0c0,-20.3 91.82,-187.19 275.45,-500.69 183.63,-313.5 275.44,-486 275.44,-518.05l446.19 0c0,29.91 82.96,200.01 249.27,510.57 166.72,310.56 249.68,479.86 249.68,508.17zm-544.86 -441.94c-134.5,-269.17 -201.75,-414.7 -201.75,-436.6l-18.93 0c0,20.3 -69.67,165.83 -209,436.6l429.69 0z"/>
  <path class="fil2 str1" d="M4369.86 4664.76l0 -238.67 38.1 0 0 94 74.11 0 0 -94 38.1 0 0 238.67 -38.1 0 0 -104.33 -74.11 0 0 104.33 -38.1 0zm188.46 0l0 -238.67 38.11 0 0 238.67 -38.11 0zm161.84 -87.67l0 -40.33 81.72 0 0 95.22c-7.93,9.83 -19.44,18.44 -34.56,25.94 -15.07,7.44 -30.35,11.17 -45.86,11.17 -19.67,0 -36.79,-5.22 -51.42,-15.72 -14.59,-10.5 -25.58,-25.56 -32.94,-45.06 -7.36,-19.5 -11.04,-40.78 -11.04,-63.72 0,-24.89 4.12,-47 12.31,-66.39 8.24,-19.33 20.24,-34.22 36.05,-44.56 12.09,-7.94 27.07,-11.89 45.02,-11.89 23.35,0 41.61,6.22 54.75,18.67 13.09,12.5 21.55,29.67 25.31,51.67l-37.84 9c-2.63,-11.72 -7.62,-21 -14.94,-27.83 -7.27,-6.78 -16.38,-10.17 -27.33,-10.17 -16.56,0 -29.74,6.67 -39.5,20.06 -9.77,13.39 -14.67,33.22 -14.67,59.5 0,28.39 4.95,49.67 14.85,63.83 9.94,14.17 22.91,21.28 38.98,21.28 7.93,0 15.9,-2 23.87,-5.94 8.01,-3.94 14.85,-8.78 20.58,-14.44l0 -30.28 -43.36 0zm116.9 87.67l0 -238.67 38.1 0 0 94 74.11 0 0 -94 38.1 0 0 238.67 -38.1 0 0 -104.33 -74.11 0 0 104.33 -38.1 0zm262.8 0l0 -238.67 139.28 0 0 40.33 -101.17 0 0 53 94.08 0 0 40.33 -94.08 0 0 64.67 104.85 0 0 40.33 -142.96 0zm175.28 0l0 -238.67 36.88 0 77.44 159.94 0 -159.94 35.21 0 0 238.67 -38.06 0 -76.25 -156.89 0 156.89 -35.22 0zm189.78 -238.67l69.29 0c15.63,0 27.55,1.5 35.74,4.56 10.99,4.11 20.45,11.44 28.3,22 7.88,10.5 13.84,23.39 17.96,38.67 4.07,15.22 6.13,34.06 6.13,56.39 0,19.67 -1.93,36.56 -5.78,50.78 -4.69,17.39 -11.39,31.44 -20.1,42.17 -6.57,8.17 -15.46,14.5 -26.63,19.06 -8.37,3.39 -19.54,5.06 -33.55,5.06l-71.35 0 0 -238.67zm38.1 40.33l0 158 28.25 0c10.56,0 18.17,-0.78 22.86,-2.28 6.18,-1.94 11.26,-5.28 15.29,-9.94 4.07,-4.67 7.36,-12.33 9.9,-23 2.58,-10.67 3.85,-25.28 3.85,-43.72 0,-18.44 -1.27,-32.56 -3.85,-42.44 -2.54,-9.89 -6.13,-17.56 -10.73,-23.11 -4.6,-5.5 -10.43,-9.28 -17.52,-11.22 -5.26,-1.5 -15.63,-2.28 -31.05,-2.28l-17 0zm223.37 198.33l0 -238.67 38.11 0 0 238.67 -38.11 0zm74.33 0l0 -238.67 36.88 0 77.44 159.94 0 -159.94 35.21 0 0 238.67 -38.06 0 -76.26 -156.89 0 156.89 -35.21 0zm232.09 0l0 -198.33 -55.71 0 0 -40.33 149.27 0 0 40.33 -55.45 0 0 198.33 -38.11 0zm118.21 0l0 -238.67 139.28 0 0 40.33 -101.17 0 0 53 94.08 0 0 40.33 -94.08 0 0 64.67 104.85 0 0 40.33 -142.96 0zm175.28 0l0 -238.67 80.02 0c20.1,0 34.73,2.17 43.84,6.44 9.15,4.28 16.43,11.89 21.9,22.83 5.48,11 8.24,23.5 8.24,37.61 0,17.94 -4.12,32.72 -12.4,44.39 -8.28,11.67 -20.63,19 -37.1,22.06 8.19,6.06 14.94,12.72 20.24,20 5.34,7.28 12.53,20.22 21.55,38.78l22.95 46.56 -45.42 0 -27.24 -52.11c-9.77,-18.5 -16.47,-30.17 -20.1,-35 -3.59,-4.78 -7.41,-8.11 -11.43,-9.89 -4.07,-1.78 -10.47,-2.67 -19.23,-2.67l-7.71 0 0 99.67 -38.1 0zm38.1 -137.67l28.12 0c18.22,0 29.57,-1 34.12,-2.94 4.51,-1.94 8.11,-5.33 10.65,-10.11 2.58,-4.78 3.85,-10.78 3.85,-17.94 0,-8.06 -1.71,-14.5 -5.08,-19.5 -3.37,-4.94 -8.15,-8.06 -14.28,-9.33 -3.11,-0.56 -12.35,-0.83 -27.72,-0.83l-29.65 0 0 60.67zm151.68 137.67l0 -238.67 36.88 0 77.44 159.94 0 -159.94 35.21 0 0 238.67 -38.06 0 -76.26 -156.89 0 156.89 -35.21 0zm359.28 0l-41.04 0 -16.25 -54.33 -75.46 0 -15.64 54.33 -40.3 0 73.06 -238.67 40.26 0 75.38 238.67zm-69.64 -94.67l-26.15 -88.33 -25.4 88.33 51.55 0zm112.74 94.67l0 -198.33 -55.71 0 0 -40.33 149.26 0 0 40.33 -55.45 0 0 198.33 -38.11 0zm116.9 0l0 -238.67 38.11 0 0 238.67 -38.11 0zm66.44 -117.89c0,-24.33 2.89,-44.78 8.63,-61.33 4.25,-12.17 10.12,-23.11 17.52,-32.78 7.4,-9.67 15.5,-16.83 24.31,-21.56 11.74,-6.28 25.27,-9.44 40.6,-9.44 27.77,0 49.93,10.94 66.62,32.78 16.64,21.89 24.96,52.28 24.96,91.22 0,38.61 -8.28,68.83 -24.79,90.61 -16.51,21.83 -38.63,32.72 -66.27,32.72 -27.98,0 -50.28,-10.83 -66.79,-32.56 -16.51,-21.67 -24.79,-51.56 -24.79,-89.67zm39.15 -1.61c0,27.06 4.95,47.56 14.8,61.56 9.86,13.94 22.38,20.94 37.54,20.94 15.2,0 27.64,-6.94 37.41,-20.78 9.72,-13.89 14.59,-34.67 14.59,-62.39 0,-27.39 -4.73,-47.83 -14.24,-61.28 -9.46,-13.5 -22.03,-20.22 -37.76,-20.22 -15.68,0 -28.34,6.83 -37.93,20.44 -9.59,13.67 -14.41,34.22 -14.41,61.72zm173.14 119.5l0 -238.67 36.88 0 77.44 159.94 0 -159.94 35.21 0 0 238.67 -38.06 0 -76.26 -156.89 0 156.89 -35.21 0zm359.28 0l-41.04 0 -16.25 -54.33 -75.47 0 -15.64 54.33 -40.3 0 73.06 -238.67 40.26 0 75.38 238.67zm-69.64 -94.67l-26.15 -88.33 -25.41 88.33 51.55 0zm90.97 94.67l0 -236.67 38.11 0 0 196.33 94.35 0 0 40.33 -132.45 0zm387.49 0l-41.04 0 -16.25 -54.33 -75.46 0 -15.64 54.33 -40.3 0 73.06 -238.67 40.26 0 75.38 238.67zm-69.64 -94.67l-26.15 -88.33 -25.4 88.33 51.55 0zm210.28 6.67l36.79 14.33c-5.65,26.28 -15.07,45.78 -28.21,58.56 -13.14,12.72 -29.78,19.11 -49.97,19.11 -25.01,0 -45.55,-10.83 -61.67,-32.5 -16.07,-21.67 -24.13,-51.28 -24.13,-88.89 0,-39.72 8.1,-70.61 24.26,-92.61 16.16,-22 37.45,-33 63.81,-33 23.04,0 41.74,8.67 56.11,25.94 8.59,10.22 14.98,24.89 19.27,44.06l-37.58 11.33c-2.24,-12.33 -6.88,-22.11 -13.93,-29.28 -7.09,-7.17 -15.68,-10.72 -25.75,-10.72 -13.97,0 -25.31,6.33 -33.99,19.06 -8.72,12.67 -13.05,33.22 -13.05,61.67 0,30.11 4.29,51.61 12.83,64.39 8.59,12.83 19.71,19.22 33.42,19.22 10.12,0 18.83,-4.06 26.11,-12.22 7.27,-8.17 12.53,-20.94 15.68,-38.44zm238.92 88l-41.04 0 -16.25 -54.33 -75.46 0 -15.64 54.33 -40.3 0 73.06 -238.67 40.26 0 75.37 238.67zm-69.64 -94.67l-26.15 -88.33 -25.41 88.33 51.55 0zm89.92 -144l69.29 0c15.63,0 27.55,1.5 35.74,4.56 10.99,4.11 20.45,11.44 28.29,22 7.89,10.5 13.84,23.39 17.96,38.67 4.07,15.22 6.13,34.06 6.13,56.39 0,19.67 -1.93,36.56 -5.78,50.78 -4.69,17.39 -11.39,31.44 -20.1,42.17 -6.57,8.17 -15.46,14.5 -26.63,19.06 -8.36,3.39 -19.54,5.06 -33.55,5.06l-71.35 0 0 -238.67zm38.11 40.33l0 158 28.25 0c10.56,0 18.18,-0.78 22.87,-2.28 6.17,-1.94 11.26,-5.28 15.28,-9.94 4.07,-4.67 7.36,-12.33 9.9,-23 2.59,-10.67 3.86,-25.28 3.86,-43.72 0,-18.44 -1.27,-32.56 -3.86,-42.44 -2.54,-9.89 -6.13,-17.56 -10.73,-23.11 -4.6,-5.5 -10.43,-9.28 -17.52,-11.22 -5.26,-1.5 -15.63,-2.28 -31.05,-2.28l-17 0zm151.68 198.33l0 -238.67 139.28 0 0 40.33 -101.18 0 0 53 94.08 0 0 40.33 -94.08 0 0 64.67 104.86 0 0 40.33 -142.96 0zm174.76 0l0 -238.67 57.07 0 33.72 162.78 33.33 -162.78 57.2 0 0 238.67 -35.22 0 -0.13 -187.89 -37.09 187.89 -36.62 0 -36.92 -187.89 -0.13 187.89 -35.22 0zm268.84 0l0 -100.44 -68.98 -138.22 44.54 0 44.5 94.5 43.32 -94.5 43.71 0 -68.98 138.56 0 100.11 -38.11 0z"/>
 </g>
</svg>
