<?xml version="1.0" encoding="UTF-8"?>
<!DOCTYPE svg PUBLIC "-//W3C//DTD SVG 1.1//EN" "http://www.w3.org/Graphics/SVG/1.1/DTD/svg11.dtd">
<!-- Creator: CorelDRAW 2020 (64-Bit) -->
<svg xmlns="http://www.w3.org/2000/svg" xml:space="preserve" width="5.82677in" height="8.26772in" version="1.1" style="shape-rendering:geometricPrecision; text-rendering:geometricPrecision; image-rendering:optimizeQuality; fill-rule:evenodd; clip-rule:evenodd"
viewBox="0 0 5826.77 8267.72"
 xmlns:xlink="http://www.w3.org/1999/xlink"
 xmlns:xodm="http://www.corel.com/coreldraw/odm/2003">
 <defs>
  <style type="text/css">
   <![CDATA[
    .str0 {stroke:white;stroke-width:6.94;stroke-linecap:round;stroke-linejoin:round;stroke-miterlimit:2.61313}
    .fil0 {fill:white}
   ]]>
  </style>
 </defs>
 <g id="Layer_x0020_1">
  <metadata id="CorelCorpID_0Corel-Layer"/>
  <path class="fil0 str0" d="M1538.51 3174.72c0,138.52 -5.01,1352.68 2.94,1380.39 5.02,17.48 16.48,14.36 30.34,22.99l36.15 20.52c8.03,4.07 6.94,5.07 16.19,10.48 22.87,13.36 45.35,29.55 69.58,40.42l35.86 20.81c20.15,10.85 53.4,34.52 71.26,42.07l96.39 53.61c15.02,12.56 48.38,25.75 61.82,34.84 7.33,4.95 6.89,5.88 16.07,10.59 13.33,6.83 21.17,14.82 35.72,20.95 35.32,14.88 70.07,45.87 106.27,60.4l317.17 182.83c13.09,5.73 7,2.73 17.11,9.56l124.32 72.35c6.25,3.39 10.76,7.22 16.25,10.42 15.96,9.29 39.19,26.07 56.55,30.12 4.6,-6.87 10,-8.65 10,-16.67l0 -2090c0,-13.14 -2.36,-15.21 -2.36,-23.33 0,-20.86 5.81,-29.93 -7.64,-50l-197.7 112.3c-24.41,24.13 -8.35,86.37 -10.06,116.96 -7.21,129.62 -2.25,352.33 -2.25,484.07 -6.87,4.6 -8.65,10 -16.67,10l-190 0c-15.56,0 -23.33,-7.77 -23.33,-23.33l0 -280c0,-14.07 2.42,-18.53 2.67,-26.98l-2.67 -63.02c0,-38.21 15.46,-70.99 -13.89,-67.49 -17.41,2.07 -7.22,-0.87 -17.04,6.54 -12.09,9.11 -28.82,14.2 -40.13,23.22 -8.88,7.09 -21.26,9.41 -30.27,16.4 -6.85,5.31 -1.68,3.92 -13.03,10.31l-58.06 31.93c-15.78,11.4 -44.25,22 -44.25,45.76l0 856.67c0,47.19 13.62,33.43 37.42,52.58l57.89 32.11c12.31,5.53 39.33,26.59 56.07,33.93 33.24,14.57 25.22,24.72 65.28,24.72 3.69,-15.82 0,-379.57 0,-426.67 0,-16.12 9.47,-30 26.67,-30 247.41,0 203.33,-22.75 203.33,100l0 603.33c0,20.65 3.09,31.6 3.46,46.76 0.27,11.16 -2.02,15.41 -2.97,23.72 -2.88,25.12 0.81,51.78 2.84,76.19 -21.56,18.69 -23.78,5.17 -53.8,-9.53 -13.7,-6.71 -9.03,-7.44 -19.12,-14.21 -7.33,-4.93 -14.88,-5.95 -23.18,-10.15l-94.62 -55.38c-46.43,-25.48 -90.56,-54.61 -138.18,-78.49l-60.61 -36.06c-20.3,-14.24 -41.93,-22.83 -61.91,-38.09 -7.85,-6 2.06,-0.7 -11.04,-5.62 -19.24,-7.23 -36.73,-18.75 -53.57,-29.76 -9.63,-6.3 -10.68,-7.79 -21.13,-12.2 -14.56,-6.15 -9.45,-4.61 -20.97,-12.36l-85.22 -48.11c-15.11,-7.67 -26.22,-17.47 -39.98,-26.69l0 -880c0,-56.88 -6.59,-174.97 -3.16,-216.49l2.92 -53.75c1.23,-29.57 16.28,-27.53 65.16,-54.84l95.16 -54.84c12.82,-6.63 16.13,-11.51 31.05,-18.95l332.3 -194.37c7,-3.93 11.93,-3.74 19.36,-7.3l63.29 -36.72c19.89,-9.28 44.81,-29.72 62.43,-37.57 6.52,-2.9 10.13,-3.98 15.96,-7.38l79 -47.66c31.2,-19.34 65.54,-34.22 96.39,-53.61l32.07 -17.93c6.59,-4.24 6.21,-6.28 12.8,-10.54 7.75,-5.01 11.17,-4.39 18.61,-8.06 18.02,-8.88 79.06,-51.28 100.59,-51.42 7.78,-0.05 47.05,30.43 61.33,36.16 16.37,6.57 17.47,11.53 31.36,18.64 5.43,2.78 9.33,4.1 15.26,8.08l32.61 17.39c9.47,5.29 7.74,6.58 15.71,10.95 7.01,3.84 9.63,3.02 16.22,7.11l142.59 84.07c19.94,15.56 52.73,28.58 77.09,46.24 7.96,5.77 8.88,4.5 18.23,8.44l223.74 129.6c11.41,6.81 21.68,11.89 32.07,17.93l95.44 54.56c6.72,3.28 9.37,4.75 14.86,8.47l111.39 65.27c6.5,2.91 10.15,3.98 15.95,7.38l63.17 36.83c10.75,5.32 7.22,6.06 15.35,11.31 13.35,8.62 27.02,4.42 27.02,26.32l0 1143.33c0,30.22 -66.59,51.86 -88.93,67.74l-47.93 28.73c-7.59,4.19 -10.1,3.2 -18.37,8.3 -8.03,4.95 -5.54,5.7 -15.82,10.85 -7.96,3.99 -12.28,3.91 -18.74,7.93l-233.15 136.85c-13.52,5.62 -18.5,12.81 -33.82,19.5 -13.48,5.89 -19.45,13.91 -33.2,20.13l-117.22 66.11c-7.55,5.31 -6.87,5.84 -16.1,10.57l-33.37 19.96c-6.28,2.84 -10.7,3.28 -16.45,6.88 -12.78,8.02 -0.19,3.91 -15,11.67l-34.12 19.21c-33.68,17.82 -150.63,83.23 -167.01,96.37 -16.94,13.59 -11.69,13.37 -9.88,33.71 3.49,39.21 -0.32,158.64 -4.22,205.48 6.63,4.44 9.24,6.07 16.67,10 6.24,-3.3 11.26,-6.07 16.68,-9.99 19.63,-14.2 63.05,-34.01 70.55,-39.45 18.04,-13.09 18.8,-11.17 35.93,-20.73 8.35,-4.66 7.21,-6.75 17.88,-12.12 7.91,-3.98 12.15,-4.06 18.83,-7.83 7.99,-4.52 8.79,-8.01 16.88,-13.12l108.84 -61.16c28.34,-13.82 77.07,-49.31 105.41,-61.26l36.63 -20.04c13.52,-6.67 13.49,-10.82 35.72,-20.94l264.93 -155.07c9.94,-4.73 11.56,-3.29 20.77,-9.23l36.17 -20.5c8.14,-5.43 5.98,-5.51 15.85,-10.82l35.61 -21.06c9.83,-5.32 9.37,-6.11 18.07,-11.92 13.62,-9.08 23.46,-8.6 37.66,-19.01l88.45 -51.56c8.26,-4.06 11.07,-6.87 18.44,-11.56l54.12 -29.21c9.82,-5.08 9.9,-6.97 18,-12 30.71,-19.08 35.26,5.63 35.26,-78.08l0 -1300c0,-8.16 -1.87,-12.87 -1.97,-17.08 -0.65,-27.46 10.17,-46.97 -24.69,-62.93l-290.52 -166.15c-7.4,-4 -10.54,-7.26 -18.41,-11.6l-155.54 -87.8c-14.47,-9.1 -2.72,-6.04 -16.9,-13.11 -9.32,-4.65 -14.74,-3.38 -23.94,-9.39 -9.2,-6 -5.8,-7.38 -17.06,-12.94l-97.3 -56.04c-6.65,-4.02 -13.4,-5.6 -20.25,-9.75 -7.99,-4.85 -7.61,-6.72 -17.78,-12.22l-38.94 -21.06c-15.73,-8.12 -24.37,-15.19 -40.1,-23.24l-229.38 -133.96c-7.27,-3.97 -13.41,-5.22 -20.48,-9.52 -18.87,-11.5 -37.59,-26.13 -58.69,-34.65 -10.96,-4.42 -10.76,-4.97 -19.02,-10.98 -8.02,-5.83 -10.92,-6.7 -19.11,-10.89l-116.62 -70.05c-49.72,11.58 -63.5,32.09 -102.93,50.4l-38.02 21.98c-12.99,5.81 -10.78,6.81 -20.48,12.85 -8.47,5.27 -11.87,4.62 -20.86,9.14 -10.54,5.29 -9.51,7.17 -17.8,12.2 -6.11,3.71 -13.99,5.66 -20.26,9.74 -9.01,5.85 -7.21,8.13 -19.6,13.73l-99.31 57.36c-8.65,5.24 -12.74,5.14 -20.54,9.46l-315.87 184.12c-13.06,9.25 -26.65,12.42 -40.48,22.85 -7.96,6 -11.36,5.68 -19.93,10.07l-137.31 79.35c-9.89,5.11 -9.44,6.25 -18.04,11.96l-119.58 67.09c-14.44,6.38 -8.6,6.41 -19.69,13.65 -7.83,5.11 -11.7,4.8 -20.42,9.58 -8.7,4.78 -11.35,9.03 -19.5,13.83 -7.93,4.67 -11.89,4.98 -20.07,9.93l-100.28 56.39c-11.24,5.58 -7.86,6.98 -17.09,12.91 -9.25,5.93 -13.48,4.34 -22.67,10.67 -13.93,9.58 -15.93,25.13 -15.93,47.4z"/>
  <path class="fil0 str0" d="M3558.51 4231.39l-2.54 -37.69c-2.03,-18.49 2.54,-11.38 2.54,-25.65 0,-16.04 -2.82,-14.44 -3.17,-26.86 -0.41,-14.3 3.17,-12.94 3.17,-29.81 0,-13.54 -3.25,-17.09 -2.19,-29.32 2.99,-34.57 -10.89,-27.11 -33.93,-10.14 -8.97,6.61 -17.5,6.97 -27.13,12.87l-51.43 31.9c-27.77,12.46 -52.59,30.4 -79.63,43.71l-239.03 137.64c-24.47,0 -14.98,-52.54 -15.02,-70l-1.65 -226.67c0,-21.89 4.65,-30.37 13.33,-43.33l206.67 0c3.78,-14.15 6.67,-5.83 6.67,-16.67l-2.67 -76.98c-0.67,-22.51 7.41,-80.9 0.17,-110.52 -3.72,-15.23 -2.16,-12.71 -20.45,-12.88l-193.71 0.38c-9,-13.44 -10.29,-13.39 -10.14,-36.53 0.33,-52.69 3.43,-179.73 0.65,-227.28 -7.64,-130.23 20.84,-72.52 143.94,-7.31 5.41,2.87 8.34,3.72 13.36,6.64 9.41,5.47 6.19,5.04 13.22,10.11l53.97 29.37c11.56,5.79 13.43,10.1 23.89,16.11l120.08 66.58c7.02,5.06 3.84,4.65 13.22,10.12l27.81 15.53c17.61,13.04 42.88,25.49 38.22,-11.27l1.79 -198.73c0,-10.93 -3.31,-14.44 -8.78,-21.22 -14.07,-17.48 -53.91,-31.74 -74.06,-45.94 -7.03,-4.95 -11.16,-6.28 -19.4,-10.6l-76.72 -43.28c-10.16,-5.55 -10.07,-7.78 -17.91,-12.09l-153.02 -86.98c-7.34,-4.52 -8.91,-7.58 -17.43,-12.57 -18.46,-10.82 -39.21,-19.56 -57.44,-32.56l-19.5 -10.5c-35.51,-14.86 -95.41,-56.24 -133.48,-76.52l-56.54 -33.5c-50.94,-37.85 -32.39,54.5 -32.39,125.78l-0.27 1496.94c-0.25,54.93 48.54,1.42 83.19,-14.02 10.79,-4.81 11.31,-4.65 21.37,-11.97l210.03 -119.97c8.3,-5.85 8.9,-7.1 18.6,-11.4 26.73,-11.84 51.09,-30.41 76.52,-43.48 9.63,-4.95 8.48,-7.56 17.37,-12.63 7.18,-4.1 12.56,-4.29 21.01,-8.99 10.24,-5.7 7.44,-6.61 17.73,-12.28l37.92 -22.08c7.8,-4.43 11.06,-5.41 18.93,-11.07l75.29 -44.71c7.45,-4.03 13.56,-5.48 20.6,-9.4 6.89,-3.84 10.3,-8.11 17.83,-12.17 16.95,-9.14 27.63,-6.23 29.91,-30.13 1.55,-16.33 -3.06,-8.39 -2.18,-25.45 0.48,-9.42 2.84,-15.3 2.84,-30.52z"/>
 </g>
</svg>
